<?xml version="1.0" standalone="no"?><!DOCTYPE svg PUBLIC "-//W3C//DTD SVG 1.1//EN" "http://www.w3.org/Graphics/SVG/1.1/DTD/svg11.dtd"><svg t="1502626176978" class="icon" style="" viewBox="0 0 1024 1024" version="1.1" xmlns="http://www.w3.org/2000/svg" p-id="4721" xmlns:xlink="http://www.w3.org/1999/xlink" width="200" height="200"><defs><style type="text/css"></style></defs><path d="M730.7 360.3c31.8-0.4 57.5-25.9 58.2-57.6 0.1-31.8-25.6-57.7-57.4-57.8h-0.9c-30.7-2.5-57.6 20.2-60.1 50.9-0.2 2.3-0.2 4.6-0.1 6.9-0.2 10 2.1 20 6.7 28.9l-107.3 97.7h-6.7c-10.3 0.2-20.3 3.2-28.9 8.8l-42.6-44.4c8.7-10.6 13.4-23.9 13.4-37.7 0.1-31.8-25.5-57.7-57.3-57.8h-0.7c-31.8 0.5-57.5 26.1-58 57.8 0.2 15.8 6.5 31 17.7 42.2l-80.4 84.3c-28.5-14.8-63.6-3.6-78.4 24.9-4.2 8.1-6.4 17.1-6.5 26.2 0.9 32.6 27.9 58.4 60.5 57.8 31.7-0.5 57.4-26.1 58-57.8 0.5-9.4-1.9-18.7-6.7-26.7l89.4-93.3h9c4.6 0.4 9.2-0.4 13.4-2.2l49.1 48.9c-2.8 7.9-4.3 16.1-4.5 24.4-0.1 31.8 25.5 57.7 57.3 57.8h0.7c30.8 0.2 55.9-24.6 56-55.4v-2.4c0.3-16-6.3-31.3-17.9-42.2l96.1-88.8-2.2-2.2c9.1 6.3 20 9.4 31.1 8.8zM301.8 558.1c-13.5-0.1-24.4-10.9-24.6-24.4 0-12.7 9.7-23.4 22.4-24.4 13.4 0.2 24.2 11 24.4 24.4 0.1 12.6-9.6 23.2-22.2 24.4z m149.3-180c-13.5 1.1-25.3-8.9-26.4-22.3-0.1-0.7-0.1-1.3-0.1-2 0-12.7 9.7-23.4 22.4-24.4 13.4-1.1 25.3 8.9 26.4 22.3 1.1 13.5-8.9 25.3-22.3 26.4z m114.2 131.1c-13.5 0.6-24.9-9.8-25.6-23.3-0.6-13.5 9.8-24.9 23.3-25.6 13.5 0.1 24.4 10.9 24.6 24.4 0.2 12.8-9.6 23.4-22.3 24.5z m137.6-207.6c-0.6-13.5 9.8-24.9 23.3-25.6 13.5 0.1 24.4 10.9 24.6 24.4 0 12.7-9.7 23.4-22.4 24.4-13.5 0.7-24.9-9.7-25.5-23.2z" fill="#1296db" p-id="4722"></path><path d="M911.7 331.6v306.3c0.1 45.4-36.6 82.2-82 82.3h-0.7l-630 2.2c-45.4 0.2-82.4-36.4-82.7-81.8V229.4c0-45.3 36.8-82.1 82.1-82.1h0.6l630.1-2.2c45.3-0.3 82.3 36.2 82.7 81.5v27.3H961v-26.7c-1.2-72.2-59.7-130.3-132-131l-630 2.3c-72-0.9-131 56.7-131.9 128.7v2.3l2.2 410.7c1.2 72.2 59.7 130.4 132 131.1l305.9-1.1c-1.3 3-2.1 6.3-2.1 9.8v101.2l-207.7 1.1c-13.5 0-24.4 10.9-24.4 24.4 0 13.5 10.9 24.4 24.4 24.4l435.6-2.2c13.5 0 24.4-10.9 24.4-24.4 0-13.5-10.9-24.4-24.4-24.4l-178.6 0.9V780c0-3.6-0.8-7-2.1-10l279.1-1c72.2-0.8 130.7-58.9 131.8-131.1V331.6h-51.5z" fill="#1296db" p-id="4723"></path></svg>