<?xml version="1.0" standalone="no"?><!DOCTYPE svg PUBLIC "-//W3C//DTD SVG 1.1//EN" "http://www.w3.org/Graphics/SVG/1.1/DTD/svg11.dtd"><svg t="1502626042973" class="icon" style="" viewBox="0 0 1024 1024" version="1.1" xmlns="http://www.w3.org/2000/svg" p-id="1024" xmlns:xlink="http://www.w3.org/1999/xlink" width="200" height="200"><defs><style type="text/css"></style></defs><path d="M512 512m-511.521032 0a511.521032 511.521032 0 1 0 1023.042064 0 511.521032 511.521032 0 1 0-1023.042064 0Z" fill="#9591FF" p-id="1025"></path><path d="M720.284903 283.102968H303.715097a34.056258 34.056258 0 0 0-34.056258 34.056258v290.60129c0 18.811871 15.244387 34.056258 34.056258 34.056258h416.586322a34.056258 34.056258 0 0 0 34.056258-34.056258V317.159226a34.072774 34.072774 0 0 0-34.072774-34.056258zM409.566968 561.96129c0 9.397677-7.630452 17.028129-17.028129 17.028129h-22.95742a17.044645 17.044645 0 0 1-17.028129-17.028129v-29.77858c0-9.381161 7.630452-17.011613 17.028129-17.011613h22.95742c9.397677 0 17.028129 7.630452 17.028129 17.011613v29.77858z m79.805935 0a17.011613 17.011613 0 0 1-17.011613 17.028129h-22.957419a17.011613 17.011613 0 0 1-17.028129-17.028129V481.114839c0-9.381161 7.613935-17.011613 17.028129-17.011613h22.957419c9.397677 0 17.011613 7.630452 17.011613 17.011613v80.846451z m91.218581 0a17.011613 17.011613 0 0 1-17.011613 17.028129h-22.957419a17.011613 17.011613 0 0 1-17.028129-17.028129V379.028645a17.011613 17.011613 0 0 1 17.028129-17.028129h22.957419c9.397677 0 17.011613 7.630452 17.011613 17.028129v182.932645z m91.185548 0a17.011613 17.011613 0 0 1-17.028129 17.028129h-22.924387a17.011613 17.011613 0 0 1-17.028129-17.028129v-131.897806a17.011613 17.011613 0 0 1 17.028129-17.028129h22.924387c9.414194 0 17.028129 7.630452 17.028129 17.028129v131.897806zM587.230968 722.795355a17.011613 17.011613 0 0 1-17.028129 17.011613h-116.372645a17.011613 17.011613 0 0 1-17.028129-17.011613v-49.664c0-9.397677 7.630452-17.028129 17.028129-17.028129h116.372645c9.397677 0 17.028129 7.630452 17.028129 17.028129v49.664z" fill="#FFFFFF" p-id="1026"></path><path d="M680.646194 725.058065c0 8.737032-7.101935 15.805935-15.822452 15.805935H359.143226a15.822452 15.822452 0 0 1 0-31.611871h305.680516c8.720516 0 15.822452 7.085419 15.822452 15.805936z" fill="#FFFFFF" p-id="1027"></path></svg>